HIERARCHY
ROOT Root
{
  OFFSET 0.0 0.0 0.0
  CHANNELS 6 Xposition Yposition Zposition Zrotation Yrotation Xrotation
  JOINT Hips
  {
    OFFSET 0.0 100.0 0.0
    CHANNELS 6 Xposition Yposition Zposition Zrotation Yrotation Xrotation
    JOINT Spine1
    {
      OFFSET 5.003913 -0.037094 -0.013727
      CHANNELS 3 Zrotation Yrotation Xrotation
      JOINT Spine2
      {
        OFFSET 7.125363 -1e-06 0.0
        CHANNELS 3 Zrotation Yrotation Xrotation
        JOINT Chest
        {
          OFFSET 7.594027 1e-06 0.0
          CHANNELS 3 Zrotation Yrotation Xrotation
          JOINT Neck1
          {
            OFFSET 26.313086 -0.460272 -0.181672
            CHANNELS 3 Zrotation Yrotation Xrotation
            JOINT Neck2
            {
              OFFSET 8.045911 0.0 0.0
              CHANNELS 3 Zrotation Yrotation Xrotation
              JOINT Head
              {
                OFFSET 6.432774 0.0 0.0
                CHANNELS 3 Zrotation Yrotation Xrotation
                JOINT HeadEnd
                {
                  OFFSET 16.169773 0.06451 0.00362
                  CHANNELS 3 Zrotation Yrotation Xrotation
                }
                JOINT Jaw
                {
                  OFFSET 0.108741 3.12938 0.002639
                  CHANNELS 3 Zrotation Yrotation Xrotation
                }
                JOINT LeftEye
                {
                  OFFSET 4.45173 8.166359 3.206392
                  CHANNELS 3 Zrotation Yrotation Xrotation
                }
                JOINT RightEye
                {
                  OFFSET 4.436895 8.135758 -3.222429
                  CHANNELS 3 Zrotation Yrotation Xrotation
                }
              }
            }
          }
          JOINT LeftShoulder
          {
            OFFSET 23.218927 5.195579 1.621656
            CHANNELS 3 Zrotation Yrotation Xrotation
            JOINT LeftArm
            {
              OFFSET 15.902118 2e-06 -2e-06
              CHANNELS 3 Zrotation Yrotation Xrotation
              JOINT LeftForeArm
              {
                OFFSET 28.739307 0.0 -1e-06
                CHANNELS 3 Zrotation Yrotation Xrotation
                JOINT LeftHand
                {
                  OFFSET 27.093981 -4e-06 0.0
                  CHANNELS 3 Zrotation Yrotation Xrotation
                  JOINT LeftHandThumb1
                  {
                    OFFSET 2.276781 3.380274 0.83384
                    CHANNELS 3 Zrotation Yrotation Xrotation
                    JOINT LeftHandThumb2
                    {
                      OFFSET 4.705309 -1e-06 -1e-06
                      CHANNELS 3 Zrotation Yrotation Xrotation
                      JOINT LeftHandThumb3
                      {
                        OFFSET 2.798515 0.0 3e-06
                        CHANNELS 3 Zrotation Yrotation Xrotation
                        JOINT LeftHandThumbEnd
                        {
                          OFFSET 3.180793 4e-06 -4e-06
                          CHANNELS 3 Zrotation Yrotation Xrotation
                        }
                      }
                    }
                  }
                  JOINT LeftHandIndex1
                  {
                    OFFSET 3.247786 2.352677 0.137192
                    CHANNELS 3 Zrotation Yrotation Xrotation
                    JOINT LeftHandIndex2
                    {
                      OFFSET 6.367095 1e-06 0.0
                      CHANNELS 3 Zrotation Yrotation Xrotation
                      JOINT LeftHandIndex3
                      {
                        OFFSET 3.662364 0.0 0.0
                        CHANNELS 3 Zrotation Yrotation Xrotation
                        JOINT LeftHandIndex4
                        {
                          OFFSET 2.329242 4e-06 -4e-06
                          CHANNELS 3 Zrotation Yrotation Xrotation
                          JOINT LeftHandIndexEnd
                          {
                            OFFSET 2.767823 1e-06 0.0
                            CHANNELS 3 Zrotation Yrotation Xrotation
                          }
                        }
                      }
                    }
                  }
                  JOINT LeftHandMiddle1
                  {
                    OFFSET 3.163612 0.945023 -0.406112
                    CHANNELS 3 Zrotation Yrotation Xrotation
                    JOINT LeftHandMiddle2
                    {
                      OFFSET 6.276789 3e-06 0.0
                      CHANNELS 3 Zrotation Yrotation Xrotation
                      JOINT LeftHandMiddle3
                      {
                        OFFSET 4.35652 -1e-06 4e-06
                        CHANNELS 3 Zrotation Yrotation Xrotation
                        JOINT LeftHandMiddle4
                        {
                          OFFSET 2.996877 0.0 8e-06
                          CHANNELS 3 Zrotation Yrotation Xrotation
                          JOINT LeftHandMiddleEnd
                          {
                            OFFSET 2.323256 3e-06 -4e-06
                            CHANNELS 3 Zrotation Yrotation Xrotation
                          }
                        }
                      }
                    }
                  }
                  JOINT LeftHandRing1
                  {
                    OFFSET 2.882606 -0.309162 0.107445
                    CHANNELS 3 Zrotation Yrotation Xrotation
                    JOINT LeftHandRing2
                    {
                      OFFSET 6.033198 0.0 4e-06
                      CHANNELS 3 Zrotation Yrotation Xrotation
                      JOINT LeftHandRing3
                      {
                        OFFSET 4.350578 3e-06 0.0
                        CHANNELS 3 Zrotation Yrotation Xrotation
                        JOINT LeftHandRing4
                        {
                          OFFSET 2.651321 2e-06 -7e-06
                          CHANNELS 3 Zrotation Yrotation Xrotation
                          JOINT LeftHandRingEnd
                          {
                            OFFSET 1.937663 1e-06 -4e-06
                            CHANNELS 3 Zrotation Yrotation Xrotation
                          }
                        }
                      }
                    }
                  }
                  JOINT LeftHandPinky1
                  {
                    OFFSET 2.865315 -1.525436 0.575687
                    CHANNELS 3 Zrotation Yrotation Xrotation
                    JOINT LeftHandPinky2
                    {
                      OFFSET 5.54936 1e-06 -8e-06
                      CHANNELS 3 Zrotation Yrotation Xrotation
                      JOINT LeftHandPinky3
                      {
                        OFFSET 3.070974 0.0 -4e-06
                        CHANNELS 3 Zrotation Yrotation Xrotation
                        JOINT LeftHandPinky4
                        {
                          OFFSET 1.549672 1e-06 0.0
                          CHANNELS 3 Zrotation Yrotation Xrotation
                          JOINT LeftHandPinkyEnd
                          {
                            OFFSET 1.952123 0.0 0.0
                            CHANNELS 3 Zrotation Yrotation Xrotation
                          }
                        }
                      }
                    }
                  }
                }
              }
            }
          }
          JOINT RightShoulder
          {
            OFFSET 23.161716 5.296122 -1.380114
            CHANNELS 3 Zrotation Yrotation Xrotation
            JOINT RightArm
            {
              OFFSET -16.027195 -2e-06 1.1e-05
              CHANNELS 3 Zrotation Yrotation Xrotation
              JOINT RightForeArm
              {
                OFFSET -28.736639 4e-06 2e-06
                CHANNELS 3 Zrotation Yrotation Xrotation
                JOINT RightHand
                {
                  OFFSET -27.133619 6e-06 0.0
                  CHANNELS 3 Zrotation Yrotation Xrotation
                  JOINT RightHandThumb1
                  {
                    OFFSET -2.274328 -3.351035 -0.83067
                    CHANNELS 3 Zrotation Yrotation Xrotation
                    JOINT RightHandThumb2
                    {
                      OFFSET -4.703594 -3e-06 2e-06
                      CHANNELS 3 Zrotation Yrotation Xrotation
                      JOINT RightHandThumb3
                      {
                        OFFSET -2.794935 -4e-06 -3e-06
                        CHANNELS 3 Zrotation Yrotation Xrotation
                        JOINT RightHandThumbEnd
                        {
                          OFFSET -3.183852 4e-06 1e-06
                          CHANNELS 3 Zrotation Yrotation Xrotation
                        }
                      }
                    }
                  }
                  JOINT RightHandIndex1
                  {
                    OFFSET -3.253496 -2.33755 -0.127667
                    CHANNELS 3 Zrotation Yrotation Xrotation
                    JOINT RightHandIndex2
                    {
                      OFFSET -6.344434 0.0 0.0
                      CHANNELS 3 Zrotation Yrotation Xrotation
                      JOINT RightHandIndex3
                      {
                        OFFSET -3.654871 0.0 -8e-06
                        CHANNELS 3 Zrotation Yrotation Xrotation
                        JOINT RightHandIndex4
                        {
                          OFFSET -2.327586 -1e-06 0.0
                          CHANNELS 3 Zrotation Yrotation Xrotation
                          JOINT RightHandIndexEnd
                          {
                            OFFSET -2.770001 3e-06 8e-06
                            CHANNELS 3 Zrotation Yrotation Xrotation
                          }
                        }
                      }
                    }
                  }
                  JOINT RightHandMiddle1
                  {
                    OFFSET -3.168223 -0.944764 0.411762
                    CHANNELS 3 Zrotation Yrotation Xrotation
                    JOINT RightHandMiddle2
                    {
                      OFFSET -6.266691 -1e-06 -4e-06
                      CHANNELS 3 Zrotation Yrotation Xrotation
                      JOINT RightHandMiddle3
                      {
                        OFFSET -4.348901 0.0 0.0
                        CHANNELS 3 Zrotation Yrotation Xrotation
                        JOINT RightHandMiddle4
                        {
                          OFFSET -3.00024 2e-06 -4e-06
                          CHANNELS 3 Zrotation Yrotation Xrotation
                          JOINT RightHandMiddleEnd
                          {
                            OFFSET -2.321477 -4e-06 -4e-06
                            CHANNELS 3 Zrotation Yrotation Xrotation
                          }
                        }
                      }
                    }
                  }
                  JOINT RightHandRing1
                  {
                    OFFSET -2.885654 0.293261 -0.119232
                    CHANNELS 3 Zrotation Yrotation Xrotation
                    JOINT RightHandRing2
                    {
                      OFFSET -6.032835 -1e-06 -4e-06
                      CHANNELS 3 Zrotation Yrotation Xrotation
                      JOINT RightHandRing3
                      {
                        OFFSET -4.33881 0.0 -4e-06
                        CHANNELS 3 Zrotation Yrotation Xrotation
                        JOINT RightHandRing4
                        {
                          OFFSET -2.654903 -4e-06 -4e-06
                          CHANNELS 3 Zrotation Yrotation Xrotation
                          JOINT RightHandRingEnd
                          {
                            OFFSET -1.935122 0.0 4e-06
                            CHANNELS 3 Zrotation Yrotation Xrotation
                          }
                        }
                      }
                    }
                  }
                  JOINT RightHandPinky1
                  {
                    OFFSET -2.866241 1.503904 -0.60527
                    CHANNELS 3 Zrotation Yrotation Xrotation
                    JOINT RightHandPinky2
                    {
                      OFFSET -5.553177 -2e-06 0.0
                      CHANNELS 3 Zrotation Yrotation Xrotation
                      JOINT RightHandPinky3
                      {
                        OFFSET -3.062664 -1e-06 -4e-06
                        CHANNELS 3 Zrotation Yrotation Xrotation
                        JOINT RightHandPinky4
                        {
                          OFFSET -1.546529 2e-06 4e-06
                          CHANNELS 3 Zrotation Yrotation Xrotation
                          JOINT RightHandPinkyEnd
                          {
                            OFFSET -1.952341 0.0 -4e-06
                            CHANNELS 3 Zrotation Yrotation Xrotation
                          }
                        }
                      }
                    }
                  }
                }
              }
            }
          }
        }
      }
    }
    JOINT LeftLeg
    {
      OFFSET -8.443107 2.567604 10.043214
      CHANNELS 3 Zrotation Yrotation Xrotation
      JOINT LeftShin
      {
        OFFSET 43.229198 1e-06 -1e-06
        CHANNELS 3 Zrotation Yrotation Xrotation
        JOINT LeftFoot
        {
          OFFSET 42.298611 1e-06 1e-06
          CHANNELS 3 Zrotation Yrotation Xrotation
          JOINT LeftToeBase
          {
            OFFSET 14.165858 1e-06 0.0
            CHANNELS 3 Zrotation Yrotation Xrotation
            JOINT LeftToeEnd
            {
              OFFSET 6.7141 -0.234461 0.0
              CHANNELS 3 Zrotation Yrotation Xrotation
            }
          }
        }
      }
    }
    JOINT RightLeg
    {
      OFFSET -8.303923 2.592729 -10.047278
      CHANNELS 3 Zrotation Yrotation Xrotation
      JOINT RightShin
      {
        OFFSET -43.369682 0.0 1e-06
        CHANNELS 3 Zrotation Yrotation Xrotation
        JOINT RightFoot
        {
          OFFSET -42.260784 4e-06 2e-06
          CHANNELS 3 Zrotation Yrotation Xrotation
          JOINT RightToeBase
          {
            OFFSET -14.222245 -2e-06 -1e-06
            CHANNELS 3 Zrotation Yrotation Xrotation
            JOINT RightToeEnd
            {
              OFFSET -6.660062 0.232574 -2e-06
              CHANNELS 3 Zrotation Yrotation Xrotation
            }
          }
        }
      }
    }
  }
}
MOTION
Frames: 5
Frame Time: 0.03333333333333333
0.0 0.0 0.0 0.0 -0.0 0.0 5.967827 91.146294 -3.640624 87.608223 -3.006123 89.86306 14.934996 -0.561608 0.190247 -3.75309 -0.922019 -0.103361 32.711201 -0.171432 -1.81853 15.215413 -2.296148 2.656628 -2.650708 -0.768286 3.345389 -52.653095 0.393326 1.920091 6e-06 0.0 0.0 0.080341 0.024869 0.035668 0.186936 0.0011 0.090635 0.137687 0.044018 -0.007455 -6.762981 -77.626129 18.011557 81.080566 -25.478271 -71.214539 126.679482 -0.086964 -0.695939 7.300709 9.232546 19.229147 17.636787 -26.323092 52.411396 -19.466757 -14.395662 29.410501 -1e-06 -8.774884 -9e-06 15.987301 -18.42877 6.489481 -0.609778 -1.795663 -3.889341 -4.807116 -11.046928 -2.937838 -2.5e-05 -20.976326 7e-05 -5.020095 -25.033998 -4.031825 6e-06 2e-06 -1e-06 -10.634581 -5.687007 -3.565593 10.573325 -17.923157 -3.113872 -1.5e-05 -13.821411 3.8e-05 -0.501871 -31.182116 -4.026959 -12.904487 -60.898159 8.236573 -13.982777 -7.150246 -2.875043 13.7728 -8.401583 -3.218235 0.347668 -34.212124 0.771763 -0.963077 -17.733717 2.621093 0.0 0.0 2e-06 -17.346512 -20.095375 -4.201747 21.757675 -1.63839 3.866455 -5e-06 -6.338919 1.1e-05 -1.697638 -22.592165 -6.194018 -1e-06 -3e-06 -1e-06 160.195648 -80.835114 37.402962 84.353714 -47.315865 -60.362507 122.714661 -0.317309 0.185169 9.750451 0.409078 37.855476 22.182171 -20.376211 49.93359 -16.70183 -16.743628 28.476685 5e-06 -12.690647 1.8e-05 16.791662 -17.274981 2.091307 -0.10592 -1.513855 -4.275901 -5.039058 -5.612901 -2.95356 -1e-05 -11.020612 3.4e-05 -6.111351 -15.895485 -3.840449 2e-06 0.0 1e-06 -10.283397 -5.680307 -4.341854 11.02832 -11.302472 -2.372619 -1.384283 -14.238684 -6.320122 -0.625517 -26.924471 -3.827543 -4.831305 -50.057304 -3.420526 -13.708561 -7.363506 -3.720944 18.141193 -14.052816 -3.242664 -3.7e-05 -18.787441 5.1e-05 -0.429742 -8.456151 2.555545 -0.0 0.0 4e-06 -15.923593 -20.09457 -5.473569 30.419296 -7.190837 1.735923 -1.5e-05 -8.163007 1.5e-05 -1.861966 -22.861757 -6.167933 1e-06 -2e-06 -4e-06 146.78038 -0.153095 -2.421385 58.627811 -0.131147 0.217313 -96.052559 -2.605409 1.982434 -5.486151 1.360133 2.089743 -0.999999 0.0 0.0 -43.914291 0.292494 -0.355885 73.812889 -0.017011 0.024148 -81.892075 -7.359708 -5.862092 -9.570083 0.89839 1.694585 -1.000001 0.0 0.0 
0.0 0.0 0.0 0.0 -0.0 0.0 6.036881 90.881622 -0.806164 87.512169 -2.935301 90.361549 14.874711 -0.422369 0.04417 -3.788826 -0.818444 -0.203151 32.821877 -0.118556 -1.967542 15.368906 -2.441275 2.586375 -2.643214 -0.75909 3.390711 -52.55621 0.386739 1.916834 7e-06 0.0 0.0 0.079177 0.020925 0.049166 0.203042 -0.007433 0.106857 0.137653 0.045031 0.002089 -7.438698 -77.462662 18.85298 81.281654 -25.49268 -71.435226 126.829773 -0.034329 -0.765107 7.510495 9.103093 19.051191 17.636915 -26.322859 52.411671 -19.466702 -14.395667 29.410597 3.5e-05 -8.774935 -3.8e-05 16.211025 -18.565628 6.529889 -0.609795 -1.795658 -3.88935 -4.807181 -11.046866 -2.937885 -4.2e-05 -20.97613 -1e-05 -5.020062 -25.033787 -4.032043 7e-06 0.0 0.0 -10.634655 -5.687018 -3.565628 10.573334 -17.922995 -3.113893 -2.5e-05 -13.821285 -2e-06 -0.501821 -31.181782 -4.027139 -13.008303 -61.270405 8.487398 -13.982878 -7.150262 -2.875082 13.772849 -8.401489 -3.218228 0.34766 -34.211754 0.771677 -0.963073 -17.733513 2.621054 0.0 -0.0 2e-06 -17.346647 -20.095341 -4.201842 21.757793 -1.638348 3.866541 -1.2e-05 -6.338856 2e-06 -1.697663 -22.591932 -6.194139 1e-06 -6e-06 -3e-06 160.247299 -80.79538 37.582623 84.276726 -47.270123 -60.180454 122.856102 -0.359946 0.235406 9.562987 0.60236 38.758041 22.182344 -20.375904 49.933823 -16.701914 -16.743603 28.476788 4.2e-05 -12.690742 -3.3e-05 16.614128 -17.381687 2.265744 -0.105932 -1.513872 -4.275912 -5.039114 -5.612929 -2.953601 -2.3e-05 -11.020617 -2.9e-05 -6.111413 -15.895548 -3.840611 -1e-06 1e-06 2e-06 -10.283479 -5.680362 -4.341891 11.028363 -11.302446 -2.372651 -1.384324 -14.238711 -6.320251 -0.625431 -26.924494 -3.827789 -4.81229 -50.086758 -3.335403 -13.708662 -7.363574 -3.720989 18.141275 -14.052775 -3.24269 -1.9e-05 -18.787405 -5.1e-05 -0.42972 -8.456122 2.555525 -2e-06 -0.0 -4e-06 -15.923733 -20.094679 -5.473672 30.41947 -7.190807 1.736029 -1.1e-05 -8.162977 -1.2e-05 -1.861932 -22.861717 -6.168128 -0.0 -2e-06 -2e-06 147.904831 0.093746 -2.011733 60.00621 -0.082149 0.144226 -97.59198 -2.88901 2.080765 -5.761705 1.43167 2.097569 -1.0 -0.0 0.0 -46.021595 0.37145 -1.254601 68.854912 -0.057041 0.159062 -81.290627 -6.503253 -6.272417 -8.695415 0.881788 1.698568 -1.000003 0.0 0.0 
0.0 0.0 0.0 0.0 -0.0 0.0 6.049041 90.548615 1.974916 87.549545 -2.87667 90.893021 14.786795 -0.369284 -0.032627 -3.829633 -0.726534 -0.358656 32.920002 -0.078225 -2.070451 15.430722 -2.5686 2.616429 -2.636105 -0.726417 3.285501 -52.530758 0.417937 1.850829 6e-06 0.0 -0.0 0.08121 0.022328 0.024314 0.214805 -0.005429 0.07928 0.137613 0.046157 -0.018778 -7.354382 -77.303246 18.940771 81.522911 -25.464115 -71.85466 127.071762 -0.036096 -0.893596 7.740603 8.782289 19.170036 17.636583 -26.322514 52.411102 -19.466669 -14.395565 29.410385 -7e-06 -8.774813 -6e-06 16.304829 -18.63056 6.580476 -0.609777 -1.795654 -3.889324 -4.807078 -11.046772 -2.937871 4.5e-05 -20.975939 -5.9e-05 -5.019874 -25.033489 -4.031961 5e-06 -1e-06 -3e-06 -10.634521 -5.686962 -3.565588 10.573276 -17.92288 -3.113932 2.6e-05 -13.821144 -2.9e-05 -0.501665 -31.181389 -4.027096 -13.054936 -61.454578 8.666496 -13.982693 -7.150181 -2.875047 13.772713 -8.401467 -3.218254 0.347813 -34.211395 0.771566 -0.962986 -17.733313 2.620999 -0.0 1e-06 3e-06 -17.346386 -20.095167 -4.201812 21.757532 -1.638379 3.866423 1e-05 -6.338795 -1.1e-05 -1.697528 -22.591667 -6.194065 1e-06 -4e-06 -2e-06 159.506775 -80.824242 38.49432 84.220917 -47.36293 -60.006191 123.070953 -0.355793 0.231317 9.48033 0.632002 39.834415 22.182106 -20.375719 49.933052 -16.701859 -16.743464 28.476419 -3.8e-05 -12.690577 -1.2e-05 16.530737 -17.470409 2.348224 -0.105918 -1.51386 -4.275866 -5.03902 -5.612855 -2.953551 3.9e-05 -11.020512 -2.5e-05 -6.111229 -15.895322 -3.840491 -1e-06 -2e-06 -0.0 -10.283348 -5.680268 -4.341825 11.028303 -11.302407 -2.372642 -1.384225 -14.238561 -6.320117 -0.625323 -26.924202 -3.827615 -4.894377 -50.028057 -3.205685 -13.708494 -7.363448 -3.720931 18.141151 -14.052755 -3.242684 7.6e-05 -18.787239 -3.3e-05 -0.429673 -8.456046 2.555497 0.0 -2e-06 1e-06 -15.923478 -20.094425 -5.473587 30.419174 -7.190882 1.735914 3.1e-05 -8.162905 -1.4e-05 -1.861792 -22.861439 -6.167965 1e-06 -2e-06 -2e-06 149.0793 0.38543 -1.708036 61.378811 -0.037319 0.082776 -99.132339 -2.893265 2.029666 -6.084675 1.496669 2.105668 -0.999999 0.0 0.0 -47.43182 0.163951 -2.192534 61.470932 -0.050367 0.321303 -79.995392 -6.1113 -6.635587 -8.105469 0.897144 1.702244 -1.000003 0.0 -0.0 
0.0 0.0 0.0 0.0 -0.0 0.0 5.963604 90.077606 4.416358 87.750938 -2.842001 91.534889 14.667622 -0.422254 -0.076582 -3.884459 -0.654409 -0.548432 32.933918 -0.058188 -2.158997 15.485868 -2.622674 2.633286 -2.641968 -0.729092 3.076671 -52.432114 0.476617 1.592717 5e-06 0.0 -0.0 0.088188 0.025364 0.003767 0.217358 -0.000922 0.052073 0.135838 0.047544 -0.031085 -6.692968 -77.130417 18.441654 81.881973 -25.430708 -72.369232 127.364449 -0.103722 -0.989976 7.964182 8.427286 19.306099 17.636497 -26.322691 52.411121 -19.466681 -14.3956 29.410395 -1.1e-05 -8.774807 1.2e-05 16.302631 -18.56159 6.616271 -0.609775 -1.795654 -3.889325 -4.807064 -11.046801 -2.937847 2.6e-05 -20.976019 -1.2e-05 -5.01993 -25.033579 -4.031872 7e-06 0.0 -0.0 -10.634502 -5.686962 -3.565578 10.573266 -17.922939 -3.11392 1.2e-05 -13.821205 -3e-06 -0.501745 -31.181536 -4.027008 -13.052388 -61.495773 8.76373 -13.982671 -7.150183 -2.875031 13.772705 -8.401492 -3.21826 0.347759 -34.211552 0.771637 -0.963018 -17.733398 2.621022 1e-06 1e-06 -0.0 -17.346357 -20.095188 -4.20177 21.7575 -1.638376 3.866387 4e-06 -6.338819 -6e-06 -1.697546 -22.591766 -6.194018 -1e-06 -4e-06 -2e-06 157.443375 -80.96608 40.706837 84.048904 -47.528622 -59.686653 123.184227 -0.268603 0.17871 9.433866 0.545212 40.728157 22.18194 -20.375872 49.933125 -16.701756 -16.743523 28.476448 -2e-05 -12.69054 3.2e-05 16.486948 -17.616766 2.394951 -0.10591 -1.513847 -4.275867 -5.039005 -5.612838 -2.953535 1.6e-05 -11.020475 4e-06 -6.111234 -15.895257 -3.84043 1e-06 2e-06 1e-06 -10.283315 -5.680254 -4.34181 11.028255 -11.302358 -2.372636 -1.384239 -14.238509 -6.320074 -0.625409 -26.924082 -3.827547 -5.106701 -49.972435 -3.003327 -13.708458 -7.36343 -3.720908 18.14109 -14.052684 -3.242692 1.1e-05 -18.787189 1.6e-05 -0.429712 -8.456022 2.555502 -1e-06 0.0 -2e-06 -15.923444 -20.094376 -5.473539 30.419092 -7.190795 1.735855 1e-06 -8.162894 7e-06 -1.861887 -22.861385 -6.167878 1e-06 -3e-06 -2e-06 150.323898 0.736408 -1.542941 62.839489 -0.029021 0.039983 -100.595039 -2.654064 1.980926 -6.436285 1.544331 2.115224 -1.000001 -0.0 -0.0 -48.024624 -0.216361 -2.850114 52.062523 0.004141 0.455459 -78.145226 -6.043638 -6.888397 -7.918792 0.958041 1.702273 -1.000003 -0.0 -0.0 
0.0 0.0 0.0 0.0 -0.0 0.0 5.767682 89.499702 6.953256 88.089638 -2.758979 92.391823 14.55974 -0.54996 -0.14465 -3.960393 -0.602117 -0.733846 32.887268 -0.045952 -2.233582 15.577762 -2.501263 2.622964 -2.638041 -0.799252 2.759559 -52.317799 0.502115 1.14857 6e-06 0.0 0.0 0.099195 0.029088 -0.013021 0.21445 0.005273 0.032405 0.139284 0.0476 -0.043687 -5.415175 -76.903915 17.306177 82.354912 -25.393311 -72.740601 127.626419 -0.116727 -1.058029 8.121665 8.078683 19.604006 17.636856 -26.322912 52.411617 -19.466919 -14.395698 29.410702 -1.4e-05 -8.77494 -1.7e-05 16.276501 -18.387522 6.612809 -0.60978 -1.795671 -3.889357 -4.807129 -11.046919 -2.9379 5.1e-05 -20.976297 -3e-05 -5.019965 -25.033983 -4.031997 4e-06 1e-06 -0.0 -10.634625 -5.687016 -3.565626 10.573418 -17.923145 -3.113949 3.2e-05 -13.821388 -1.2e-05 -0.501689 -31.182068 -4.027116 -12.951118 -61.472523 8.711637 -13.982832 -7.150251 -2.87508 13.772883 -8.401595 -3.21827 0.347827 -34.212055 0.771627 -0.963009 -17.733679 2.621085 1e-06 -0.0 -1e-06 -17.346561 -20.095381 -4.201846 21.757786 -1.638427 3.866494 1.7e-05 -6.338902 -7e-06 -1.697539 -22.592129 -6.194167 -2e-06 -4e-06 -3e-06 154.210388 -81.146057 44.132824 83.812057 -47.722191 -59.492641 123.145523 -0.179143 0.099035 9.475856 0.336496 41.330772 22.182344 -20.375957 49.933533 -16.701918 -16.743563 28.476656 4e-06 -12.690695 -3.5e-05 16.476591 -17.737883 2.399627 -0.105926 -1.513868 -4.275898 -5.039082 -5.612918 -2.953581 5e-06 -11.020639 -7e-06 -6.111354 -15.895556 -3.840541 -2e-06 1e-06 -0.0 -10.283437 -5.680326 -4.341868 11.02836 -11.302494 -2.372632 -1.38429 -14.238721 -6.320187 -0.625426 -26.924561 -3.827675 -5.281338 -49.941475 -2.844897 -13.708613 -7.363529 -3.720971 18.141262 -14.05285 -3.242667 1.7e-05 -18.787458 -2e-05 -0.429705 -8.45615 2.555532 0.0 0.0 -2e-06 -15.923645 -20.094622 -5.473624 30.419392 -7.190892 1.735997 7e-06 -8.163 -8e-06 -1.861878 -22.861776 -6.168064 2e-06 -4e-06 -4e-06 151.726028 1.17044 -1.36773 64.260979 -0.057615 0.021045 -101.899879 -2.311365 1.961348 -6.826642 1.574295 2.121459 -1.0 -0.0 0.0 -47.778465 -0.719824 -3.059249 41.797588 0.084961 0.531115 -75.6987 -5.932062 -7.409769 -8.18584 1.027661 1.67973 -1.000002 -0.0 0.0 
